<svg width="176" height="58" viewBox="0 0 176 58" fill="none" xmlns="http://www.w3.org/2000/svg">
<g clip-path="url(#clip0_1_751)" filter="url(#filter0_d_1_751)">
<path d="M167.8 0H8.2C5.8804 0 4 1.86548 4 4.16667V45.8333C4 48.1345 5.8804 50 8.2 50H167.8C170.12 50 172 48.1345 172 45.8333V4.16667C172 1.86548 170.12 0 167.8 0Z" fill="#151515"/>
<path d="M38.944 20.293L20.2862 10.0707C19.757 9.78325 19.2698 9.7138 18.875 9.8388L34.156 25.061L38.944 20.2902" fill="url(#paint0_linear_1_751)"/>
<path fill-rule="evenodd" clip-rule="evenodd" d="M38.9678 29.8583L45.3378 26.3694C46.6286 25.6583 46.6286 24.5028 45.3378 23.7944L38.944 20.2944L34.156 25.0639L38.9678 29.8583Z" fill="url(#paint1_linear_1_751)"/>
<path d="M18.875 9.83887C18.3052 10.0139 17.937 10.5889 17.937 11.45L17.9426 38.7083C17.9426 39.5639 18.2982 40.1278 18.8498 40.3166L34.156 25.0639L18.875 9.83887Z" fill="url(#paint2_linear_1_751)"/>
<path d="M18.8499 40.3194C19.2475 40.4528 19.7459 40.3889 20.2863 40.0944L38.9651 29.8583L34.1561 25.0667L18.8499 40.3194Z" fill="url(#paint3_linear_1_751)"/>
<path fill-rule="evenodd" clip-rule="evenodd" d="M61.3607 8.44043C62.5367 8.44043 63.3515 8.96543 63.8807 9.50293L63.0547 10.4238C62.6291 10.014 62.1629 9.7321 61.3747 9.7321C59.8739 9.7321 58.8659 10.8849 58.8659 12.7654C58.8659 14.6738 59.7703 15.8265 61.4643 15.8265C61.9305 15.8265 62.3953 15.6988 62.6683 15.4543V13.6488H61.0751V12.4349H64.0109V16.121C63.4299 16.6585 62.4345 17.1182 61.2837 17.1182C59.0325 17.1182 57.3259 15.5835 57.3259 12.8057C57.3259 10.0654 59.0843 8.44043 61.3579 8.44043M69.5731 13.264C69.5731 12.2668 69.1489 11.6668 68.2823 11.6668C67.5319 11.6668 66.8851 12.2154 66.7563 13.264H69.5731ZM68.2431 10.5279C69.9623 10.5279 70.8681 11.7543 70.8681 13.5071C70.8681 13.7904 70.8401 14.0446 70.8037 14.1988H66.7689C66.8949 15.3377 67.6229 15.9793 68.6449 15.9793C69.1853 15.9793 69.6501 15.8127 70.1149 15.5182L70.6189 16.439C70.0127 16.8349 69.2511 17.1168 68.4489 17.1168C66.6891 17.1168 65.3199 15.9015 65.3199 13.8279C65.3213 11.7779 66.7563 10.5279 68.2431 10.5279ZM72.3171 11.8446H71.4141V10.7446L72.3969 10.6807L72.5789 8.96404H73.8193V10.6807H75.4349V11.8446H73.8193V14.839C73.8193 15.5807 74.1021 15.939 74.7111 15.939C74.9309 15.939 75.1899 15.8752 75.3691 15.8002L75.6295 16.8863C75.2795 17.0015 74.8399 17.1168 74.3359 17.1168C72.8617 17.1168 72.3199 16.1946 72.3199 14.839V11.8446H72.3171Z" fill="#E7E7E7"/>
<mask id="mask0_1_751" style="mask-type:luminance" maskUnits="userSpaceOnUse" x="55" y="7" width="106" height="39">
<path d="M55.5032 7.90283H160.422V45.1251H55.5032V7.90283Z" fill="#E7E7E7"/>
</mask>
<g mask="url(#mask0_1_751)">
<path fill-rule="evenodd" clip-rule="evenodd" d="M79.4208 10.6806H80.9076V16.9639H79.4208V10.6806ZM79.2528 8.74728C79.2528 8.24728 79.6406 7.90283 80.1698 7.90283C80.7018 7.90283 81.0868 8.25005 81.0868 8.74728C81.0868 9.23339 80.7004 9.58061 80.1684 9.58061C79.6364 9.58061 79.25 9.23339 79.25 8.74728H79.2528ZM83.03 11.8445H82.1242V10.7445L83.1084 10.6806L83.2904 8.96394H84.5308V10.6806H86.1464V11.8445H84.5308V14.8389C84.5308 15.5806 84.8136 15.9389 85.4226 15.9389C85.6438 15.9389 85.9014 15.8751 86.0834 15.8001L86.3424 16.8862C85.9924 17.0014 85.5528 17.1167 85.0488 17.1167C83.5746 17.1167 83.0328 16.1945 83.0328 14.8389V11.8445H83.03ZM92.7292 15.9139C93.6616 15.9139 94.23 15.0806 94.23 13.8278C94.23 12.5612 93.6616 11.7306 92.7292 11.7306C91.7982 11.7306 91.2452 12.5612 91.2452 13.8278C91.2452 15.082 91.7982 15.9139 92.7292 15.9139ZM92.7292 10.5251C94.3196 10.5251 95.756 11.7292 95.756 13.8278C95.756 15.9139 94.3196 17.1195 92.7292 17.1195C91.1514 17.1195 89.7192 15.9139 89.7192 13.8278C89.7192 11.7306 91.1514 10.5264 92.7292 10.5264M97.233 10.6806H98.4608L98.5644 11.5251H98.6148C99.1846 10.9751 99.8328 10.5251 100.698 10.5251C102.056 10.5251 102.65 11.4348 102.65 13.0223V16.9639H101.163V13.2139C101.163 12.1764 100.869 11.7945 100.169 11.7945C99.6116 11.7945 99.2504 12.0612 98.7184 12.5723V16.9639H97.2344V10.6806H97.233Z" fill="#E7E7E7"/>
</g>
<mask id="mask1_1_751" style="mask-type:luminance" maskUnits="userSpaceOnUse" x="55" y="7" width="106" height="39">
<path d="M55.5032 7.90283H160.422V45.1251H55.5032V7.90283Z" fill="white"/>
</mask>
<g mask="url(#mask1_1_751)">
<path fill-rule="evenodd" clip-rule="evenodd" d="M131.498 29.7529C130.442 29.7529 129.678 30.0445 129.206 30.6237C128.734 31.2015 128.492 32.1237 128.478 33.3876V33.7348C128.478 35.1709 128.72 36.1987 129.206 36.8209C129.689 37.4404 130.466 37.7515 131.537 37.7515C132.43 37.7515 133.133 37.3904 133.637 36.6751C134.145 35.9612 134.397 34.9723 134.397 33.714C134.397 32.439 134.145 31.4584 133.636 30.7765C133.132 30.0932 132.418 29.7515 131.497 29.7515M131.725 39.0473C131.05 39.0473 130.437 38.9251 129.88 38.6793C129.32 38.4311 128.836 38.0394 128.48 37.5445H128.363C128.44 38.1418 128.478 38.7084 128.478 39.2432V43.457H126.913V28.6251H128.187L128.403 30.0251H128.478C128.881 29.464 129.349 29.0626 129.887 28.8112C130.464 28.5544 131.092 28.4273 131.725 28.439C133.097 28.439 134.155 28.9015 134.903 29.8279C135.645 30.7557 136.017 32.0598 136.017 33.7348C136.017 35.4154 135.639 36.7209 134.883 37.6515C134.123 38.582 133.072 39.0473 131.725 39.0473ZM139.646 38.8612H138.078V24.3279H139.646V38.8612ZM145.114 37.7695C146.09 37.7695 146.857 37.5057 147.41 36.9779C147.968 36.4459 148.246 35.7043 148.246 34.7515V33.8307L146.678 33.8945C145.432 33.939 144.536 34.1307 143.987 34.4695C143.436 34.8084 143.161 35.339 143.161 36.0529C143.161 36.6126 143.329 37.039 143.675 37.3307C144.018 37.6251 144.497 37.7695 145.114 37.7695ZM148.651 38.8626L148.343 37.407H148.266C147.748 38.0501 147.234 38.4834 146.72 38.7084C146.209 38.9348 145.568 39.0487 144.802 39.0487C143.776 39.0487 142.972 38.7876 142.39 38.2654C141.808 37.7432 141.516 37.0015 141.516 36.0334C141.516 33.9668 143.185 32.8807 146.528 32.7834L148.283 32.7279V32.089C148.283 31.289 148.108 30.6945 147.758 30.3112C147.408 29.9293 146.848 29.7376 146.082 29.7376C145.221 29.7376 144.248 30.0015 143.16 30.5223L142.677 29.3348C143.187 29.0626 143.745 28.8487 144.351 28.6904C144.949 28.5367 145.563 28.4587 146.18 28.4584C147.412 28.4584 148.325 28.7279 148.92 29.2709C149.513 29.8126 149.811 30.6793 149.811 31.8751V38.8612H148.649L148.651 38.8626ZM150.723 28.6251H152.403L154.668 34.464C155.162 35.7973 155.473 36.7584 155.592 37.3501H155.666C155.75 37.0307 155.918 36.489 156.184 35.7182C156.443 34.9501 157.296 32.5834 158.742 28.6237H160.422L155.98 40.2807C155.537 41.4334 155.024 42.2501 154.434 42.7334C153.846 43.2168 153.124 43.4557 152.27 43.4557C151.791 43.4557 151.318 43.4001 150.853 43.2959V42.0529C151.199 42.1307 151.587 42.1668 152.015 42.1668C153.089 42.1668 153.856 41.5668 154.315 40.3751L154.895 38.9168L150.723 28.6209V28.6251ZM101.798 35.014C102.297 34.5195 102.34 33.839 102.34 33.4515C102.34 31.9098 101.409 29.5112 99.6144 29.5112C99.0516 29.5112 98.4454 29.7918 98.0996 30.2195C97.7314 30.6682 97.6236 31.2473 97.6236 31.8029C97.6236 33.2376 98.4692 35.6168 100.328 35.6168C100.877 35.6036 101.401 35.3888 101.798 35.014ZM101.173 39.0834C101 39.0612 100.893 39.0612 100.677 39.0612C100.481 39.0612 99.312 39.1029 98.4048 39.4084C97.9288 39.5751 96.5428 40.0918 96.5428 41.6098C96.5428 43.1279 98.038 44.2209 100.351 44.2209C102.428 44.2209 103.532 43.2376 103.532 41.9098C103.532 40.8154 102.818 40.239 101.174 39.0834H101.173ZM102.708 29.5765C103.208 29.982 104.244 30.8404 104.244 32.4654C104.244 34.0515 103.334 34.8015 102.428 35.507C102.148 35.782 101.821 36.0876 101.821 36.5584C101.821 37.0279 102.147 37.2848 102.385 37.4779L103.165 38.0751C104.117 38.8709 104.981 39.5973 104.981 41.0751C104.981 43.089 103.009 45.1237 99.291 45.1237C96.155 45.1237 94.643 43.6432 94.643 42.0598C94.643 41.2876 95.028 40.1987 96.309 39.4459C97.6474 38.632 99.466 38.5265 100.439 38.4598C100.134 38.0765 99.7894 37.6682 99.7894 37.0084C99.7894 36.6404 99.8972 36.4251 100.005 36.1682C99.767 36.1904 99.529 36.2098 99.312 36.2098C97.0216 36.2098 95.7238 34.5182 95.7238 32.8487C95.7238 31.8654 96.1774 30.7723 97.107 29.9807C98.339 28.9751 99.809 28.8029 100.981 28.8029H105.437L104.051 29.5737H102.71L102.708 29.5765ZM91.7884 37.0098C92.3064 36.3265 92.4366 35.4682 92.4366 34.6348C92.4366 32.7543 91.5336 29.1626 88.8526 29.1626C88.1414 29.1626 87.4288 29.4404 86.9108 29.8904C86.0708 30.6404 85.9168 31.5807 85.9168 32.5015C85.9168 34.6168 86.9752 38.1015 89.589 38.1015C90.429 38.1015 91.297 37.6945 91.7898 37.0112M89.092 38.7445C85.6592 38.7445 83.8238 36.0918 83.8238 33.6959C83.8238 30.8973 86.1338 28.5015 89.4168 28.5015C92.5906 28.5015 94.5786 30.9598 94.5786 33.5487C94.5786 36.0709 92.613 38.7432 89.0906 38.7432M80.0844 37.0098C80.6024 36.3265 80.7312 35.4682 80.7312 34.6348C80.7312 32.7543 79.824 29.1626 77.1472 29.1626C76.4332 29.1626 75.7192 29.4404 75.204 29.8904C74.3584 30.6404 74.21 31.5807 74.21 32.5015C74.21 34.6168 75.267 38.1015 77.8808 38.1015C78.7236 38.1015 79.586 37.6945 80.0844 37.0112M77.3852 38.7445C73.9496 38.7445 72.1128 36.0918 72.1128 33.6959C72.1128 30.8973 74.4256 28.5015 77.7086 28.5015C80.8838 28.5015 82.8704 30.9598 82.8704 33.5487C82.8704 36.0709 80.9062 38.7432 77.3866 38.7432M70.4622 38.407L67.3598 39.1154C66.0956 39.3098 64.9658 39.4793 63.7758 39.4793C57.7838 39.4793 55.5018 35.1182 55.5018 31.7015C55.5018 27.5307 58.7358 23.6626 64.2742 23.6626C65.3965 23.6646 66.5134 23.8159 67.595 24.1126C69.2246 24.5654 69.9848 25.1237 70.4608 25.4459L68.659 27.1432L67.9002 27.3154L68.4434 26.4543C67.7042 25.7459 66.3574 24.4348 63.7954 24.4348C60.3654 24.4348 57.7824 27.0182 57.7824 30.7779C57.7824 34.8168 60.7322 38.6223 65.4656 38.6223C66.8572 38.6223 67.5726 38.3404 68.2236 38.0834V34.6251L64.9476 34.7959L66.6836 33.8682H71.2868L70.7212 34.4098C70.5672 34.5376 70.5462 34.5793 70.5042 34.7529C70.4818 34.9445 70.4594 35.5695 70.4594 35.7807V38.4057L70.4622 38.407Z" fill="white"/>
</g>
<mask id="mask2_1_751" style="mask-type:luminance" maskUnits="userSpaceOnUse" x="55" y="7" width="106" height="39">
<path d="M55.5032 7.90283H160.422V45.1251H55.5032V7.90283Z" fill="white"/>
</mask>
<g mask="url(#mask2_1_751)">
<path fill-rule="evenodd" clip-rule="evenodd" d="M109.571 37.7874C108.854 37.7222 108.703 37.5958 108.703 36.7541V24.5902L108.717 24.4513C108.804 23.6986 109.02 23.5708 109.697 23.1819H106.589L104.96 23.9597H106.619V37.2263C106.619 37.6569 106.535 37.7222 106.033 38.3652H109.876L110.681 37.8972C110.312 37.8499 109.942 37.8305 109.573 37.786M116.379 31.6208C116.79 31.4736 117.004 31.343 117.004 31.0472C117.004 30.1944 116.034 29.2111 114.869 29.2111C114.005 29.2111 112.391 29.8736 112.391 32.1791C112.391 32.5402 112.433 32.9249 112.457 33.3083L116.377 31.6194L116.379 31.6208ZM118.409 37.9847C118.171 38.1097 117.933 38.2624 117.698 38.3666C116.984 38.6902 116.251 38.7736 115.602 38.7736C114.916 38.7736 113.836 38.7291 112.737 37.9402C111.205 36.8736 110.539 35.0374 110.539 33.4361C110.539 30.1263 113.257 28.5055 115.476 28.5055C116.252 28.5055 117.05 28.6999 117.7 29.1027C118.775 29.8069 119.055 30.7236 119.206 31.2166L114.141 33.2444L112.479 33.3736C113.018 36.0819 114.873 37.6624 116.921 37.6624C118.022 37.6624 118.82 37.2777 119.553 36.9166L118.411 37.9861L118.409 37.9847ZM120.488 28.6527V30.061H120.315V28.6527H119.844V28.5069H120.96V28.6527H120.488ZM122.427 30.061V28.6388H122.423L121.982 30.061H121.846L121.404 28.6402H121.4V30.0624H121.24V28.5069H121.51L121.911 29.7652H121.914L122.308 28.5083H122.58V30.0638H122.426L122.427 30.061Z" fill="white"/>
</g>
</g>
<defs>
<filter id="filter0_d_1_751" x="0" y="0" width="176" height="58" filterUnits="userSpaceOnUse" color-interpolation-filters="sRGB">
<feFlood flood-opacity="0" result="BackgroundImageFix"/>
<feColorMatrix in="SourceAlpha" type="matrix" values="0 0 0 0 0 0 0 0 0 0 0 0 0 0 0 0 0 0 127 0" result="hardAlpha"/>
<feOffset dy="4"/>
<feGaussianBlur stdDeviation="2"/>
<feComposite in2="hardAlpha" operator="out"/>
<feColorMatrix type="matrix" values="0 0 0 0 0 0 0 0 0 0 0 0 0 0 0 0 0 0 0.25 0"/>
<feBlend mode="normal" in2="BackgroundImageFix" result="effect1_dropShadow_1_751"/>
<feBlend mode="normal" in="SourceGraphic" in2="effect1_dropShadow_1_751" result="shape"/>
</filter>
<linearGradient id="paint0_linear_1_751" x1="404.501" y1="-527.48" x2="1021.43" y2="1554.25" gradientUnits="userSpaceOnUse">
<stop stop-color="#19A3B4"/>
<stop offset="0.34817" stop-color="#5BC3AF"/>
<stop offset="0.92234" stop-color="#C9F7A6"/>
<stop offset="1" stop-color="#D7FEA5"/>
</linearGradient>
<linearGradient id="paint1_linear_1_751" x1="-144.423" y1="-1073.07" x2="565.636" y2="1228.64" gradientUnits="userSpaceOnUse">
<stop stop-color="#FC227C"/>
<stop offset="1" stop-color="#FEEB7B"/>
</linearGradient>
<linearGradient id="paint2_linear_1_751" x1="474.518" y1="-441.659" x2="1515.72" y2="2260.26" gradientUnits="userSpaceOnUse">
<stop stop-color="#0E4DA0"/>
<stop offset="1" stop-color="#6BFED4"/>
</linearGradient>
<linearGradient id="paint3_linear_1_751" x1="2678.98" y1="277.312" x2="742.66" y2="2488.82" gradientUnits="userSpaceOnUse">
<stop stop-color="#FC472E"/>
<stop offset="0.00332" stop-color="#FC472E"/>
<stop offset="1" stop-color="#893CD8"/>
</linearGradient>
<clipPath id="clip0_1_751">
<rect width="168" height="50" fill="white" transform="translate(4)"/>
</clipPath>
</defs>
</svg>
